<svg xmlns="http://www.w3.org/2000/svg" viewBox="479 326 102.036 113.366">
  <defs>
    <style>
      .cls-1 {
        fill: #FFFFFF;
        fill-rule: evenodd;
      }
    </style>
  </defs>
  <g id="Mann" transform="translate(478.354 325.219)">
    <g id="Mann-2">
      <path id="Fill-40" class="cls-1" d="M1.771,114.147a1.125,1.125,0,0,1-1.125-1.125V95.371A28.961,28.961,0,0,1,18.371,68.419a160.145,160.145,0,0,1,19.118-7.181,1.125,1.125,0,1,1,.617,2.164,157.951,157.951,0,0,0-18.844,7.084A26.738,26.738,0,0,0,2.9,95.371v17.651a1.125,1.125,0,0,1-1.125,1.125"/>
      <path id="Fill-41" class="cls-1" d="M51.663,113.942a1.125,1.125,0,0,1-1.125-1.125V97.623a1.125,1.125,0,0,1,2.25,0v15.194a1.125,1.125,0,0,1-1.125,1.125"/>
      <path id="Fill-42" class="cls-1" d="M24.866,93.641a1.124,1.124,0,0,1-1.034-1.567l12.932-30.2a1.125,1.125,0,0,1,2.068.885L27.176,89.982l17.586-9.553a1.125,1.125,0,0,1,1.074,1.977L25.4,93.5a1.12,1.12,0,0,1-.537.137"/>
      <path id="Fill-43" class="cls-1" d="M51.664,98.748a1.125,1.125,0,0,1-1.047-.714L36.751,62.73a1.125,1.125,0,0,1,2.094-.822l13.866,35.3a1.124,1.124,0,0,1-.636,1.458,1.1,1.1,0,0,1-.411.079"/>
      <path id="Fill-44" class="cls-1" d="M101.557,114.146a1.125,1.125,0,0,1-1.125-1.125V95.37A26.741,26.741,0,0,0,84.065,70.485,158.194,158.194,0,0,0,65.222,63.4a1.125,1.125,0,1,1,.617-2.164,160.5,160.5,0,0,1,19.117,7.181A28.962,28.962,0,0,1,102.682,95.37v17.651a1.125,1.125,0,0,1-1.125,1.125"/>
      <path id="Fill-45" class="cls-1" d="M51.664,98.748a1.1,1.1,0,0,1-.411-.079,1.124,1.124,0,0,1-.636-1.458l13.866-35.3a1.125,1.125,0,1,1,2.094.822l-13.866,35.3a1.125,1.125,0,0,1-1.047.714"/>
      <path id="Fill-46" class="cls-1" d="M78.462,93.641a1.12,1.12,0,0,1-.537-.137l-20.433-11.1a1.125,1.125,0,0,1,1.074-1.977l17.586,9.553L64.5,62.762a1.125,1.125,0,0,1,2.068-.885L79.5,92.074a1.124,1.124,0,0,1-1.034,1.567"/>
      <path id="Fill-47" class="cls-1" d="M51.664,71.445c-8.93,0-22.524-13.511-23.04-25.484-3.082-1.823-5.408-6.984-5.408-12.237a1.125,1.125,0,0,1,2.25,0c0,4.631,2.152,9.44,4.7,10.5a1.125,1.125,0,0,1,.692,1.038c0,11.253,13.573,23.931,20.806,23.931S72.469,56.517,72.469,45.264a1.125,1.125,0,0,1,.692-1.038c2.548-1.062,4.7-5.871,4.7-10.5a1.125,1.125,0,0,1,2.25,0c0,5.253-2.326,10.414-5.408,12.237-.515,11.973-14.11,25.484-23.039,25.484"/>
      <path id="Fill-48" class="cls-1" d="M29.733,39.2a1.125,1.125,0,0,1-1.125-1.125v-5.81a1.125,1.125,0,1,1,2.25,0v5.81A1.125,1.125,0,0,1,29.733,39.2Zm43.861,0a1.125,1.125,0,0,1-1.125-1.125v-5.81a1.125,1.125,0,1,1,2.25,0v5.81A1.125,1.125,0,0,1,73.594,39.2Z"/>
      <path id="Fill-49" class="cls-1" d="M29.734,33.393a1.125,1.125,0,0,1-.483-2.142L62.807,15.318a1.124,1.124,0,0,1,1.43.411L74.422,31.663a1.125,1.125,0,0,1-1.9,1.211l-9.65-15.1L30.216,33.285a1.131,1.131,0,0,1-.482.108"/>
      <path id="Fill-50" class="cls-1" d="M78.985,28.067a1.127,1.127,0,0,1-1.12-1.027,26.3,26.3,0,0,0-52.4,0,1.112,1.112,0,0,1-1.219,1.023,1.127,1.127,0,0,1-1.023-1.219,28.552,28.552,0,0,1,56.887,0,1.127,1.127,0,0,1-1.023,1.219c-.033,0-.066,0-.1,0"/>
    </g>
  </g>
</svg>
