<svg xmlns="http://www.w3.org/2000/svg" viewBox="1 -1 896.745 753">
  <defs>
    <style>
      .cls-1 {
        fill: #fff;
      }

      .cls-2 {
        fill: #f59b00;
      }

      .cls-3 {
        fill: rgba(255,255,255,0.25);
      }

      .cls-4 {
        fill: #8a8784;
      }

      .cls-5 {
        fill: #d7d7d6;
      }

      .cls-6 {
        fill: #64b42d;
      }

      .cls-10, .cls-7 {
        fill: #e60055;
      }

      .cls-8 {
        fill: rgba(255,255,255,0.4);
      }

      .cls-9 {
        fill: #f6f5f5;
      }

      .cls-10, .cls-11, .cls-13, .cls-14, .cls-15 {
        stroke: #fff;
      }

      .cls-10, .cls-11 {
        stroke-width: 6.3px;
      }

      .cls-11, .cls-13, .cls-14, .cls-15 {
        fill: none;
      }

      .cls-12 {
        fill: #00aae1;
      }

      .cls-13, .cls-14 {
        stroke-linecap: square;
      }

      .cls-13, .cls-14, .cls-15 {
        stroke-width: 2px;
      }

      .cls-14, .cls-15 {
        stroke-dasharray: 5 5;
      }
    </style>
  </defs>
  <g id="illustration_v5" data-name="illustration v5" transform="translate(-39 -41.46)">
    <g id="illustration">
      <g id="devices">
        <g id="Base" transform="translate(0 310)">
          <g id="baseline_devices" transform="translate(0 -24)">
            <rect id="baseline_3" class="cls-1" width="118" height="7" rx="3.5" transform="translate(289 500.46)"/>
            <rect id="baseline_2" class="cls-1" width="173" height="7" rx="3.5" transform="translate(422 500.46)"/>
            <rect id="baseline_1" class="cls-1" width="216" height="7" rx="3.5" transform="translate(40 500.46)"/>
          </g>
        </g>
        <g id="desktop">
          <rect id="Rectangle-Copy-185" class="cls-2" width="252.23" height="159.19" rx="4.2" transform="translate(224.37 599)"/>
          <path id="Rectangle-Copy-185-2" data-name="Rectangle-Copy-185" class="cls-1" d="M473.45,603.2a1,1,0,0,0-1.05-1.05H228.57a1,1,0,0,0-1,1.05V754a1,1,0,0,0,1,1H472.4a1,1,0,0,0,1.05-1Zm6.3,0V754a7.35,7.35,0,0,1-7.35,7.34H228.57a7.36,7.36,0,0,1-7.35-7.35V603.2a7.36,7.36,0,0,1,7.35-7.35H472.4A7.36,7.36,0,0,1,479.75,603.2Z"/>
          <path id="Rectangle-Copy-188" class="cls-3" d="M347.5,606h126V752.67H374.4Z"/>
          <path id="Rectangle-Copy-203" class="cls-1" d="M358.9,755.39a3.517,3.517,0,0,0-2.043,2.189,3.433,3.433,0,0,0,.413,2.939l19,27.924a4.85,4.85,0,0,0,6,1.392,3.516,3.516,0,0,0,2.03-2.2,3.433,3.433,0,0,0-.43-2.937l-19-27.924a4.871,4.871,0,0,0-6.05-1.373Z" transform="translate(0 0.706)"/>
          <path id="Rectangle-Copy-204" class="cls-1" d="M339.25,755.389a3.516,3.516,0,0,1,2.037,2.191,3.431,3.431,0,0,1-.417,2.936l-19,27.907a4.872,4.872,0,0,1-6,1.392,3.516,3.516,0,0,1-2.042-2.195,3.431,3.431,0,0,1,.422-2.942l19-27.916a4.872,4.872,0,0,1,6.05-1.372Z" transform="translate(0 0.716)"/>
        </g>
        <g id="tablet">
          <rect id="Rectangle-Copy-186" class="cls-4" width="104.31" height="118.65" rx="4.2" transform="translate(136.15 648.69)"/>
          <path id="Rectangle-Copy-186-2" data-name="Rectangle-Copy-186" class="cls-1" d="M142.45,655V761h91.7V655Zm-2.1-6.3h95.9a4.19,4.19,0,0,1,4.2,4.2V763.14a4.19,4.19,0,0,1-4.2,4.2H140.36a4.2,4.2,0,0,1-4.2-4.2V652.9a4.17,4.17,0,0,1,4.19-4.2Z"/>
          <rect id="Rectangle-Copy-187" class="cls-2" width="98.31" height="31.98" rx="4.2" transform="translate(139.15 757.6)"/>
          <path id="Rectangle-Copy-187-2" data-name="Rectangle-Copy-187" class="cls-1" d="M143.35,760.75a1,1,0,0,0-1,1v23.57a1,1,0,0,0,1,1h89.9a1,1,0,0,0,1.06-1V761.8a1,1,0,0,0-1-1H143.35Zm0-6.3h89.9a7.36,7.36,0,0,1,7.36,7.35v23.57a7.34,7.34,0,0,1-7.34,7.35H143.36a7.36,7.36,0,0,1-7.36-7.35V761.8A7.36,7.36,0,0,1,143.35,754.45Z"/>
          <circle id="Oval-Copy-105" class="cls-1" cx="4.2" cy="4.2" r="4.2" transform="translate(184.11 771.66)"/>
        </g>
        <g id="mobile_phone">
          <rect id="Rectangle-Copy-189" class="cls-5" width="55.66" height="90.17" rx="4.2" transform="translate(458.39 698.72)"/>
          <path id="Rectangle-Copy-189-2" data-name="Rectangle-Copy-189" class="cls-1" d="M462.6,701.87a1,1,0,0,0-1.06,1V784.7a1,1,0,0,0,1,1h47.25a1,1,0,0,0,1.05-1V702.9a1,1,0,0,0-1.05-1H462.6Zm0-6.3h47.25a7.36,7.36,0,0,1,7.35,7.35V784.7a7.35,7.35,0,0,1-7.35,7.34H462.6a7.36,7.36,0,0,1-7.36-7.35V702.9a7.36,7.36,0,0,1,7.35-7.35Z"/>
          <ellipse id="Oval-Copy-106" class="cls-1" cx="5.57" cy="5.54" rx="5.57" ry="5.54" transform="translate(480.65 767.63)"/>
        </g>
      </g>
      <g id="clouds">
        <path id="cloud" class="cls-6" d="M865.1,608.4a30,30,0,0,1,57.6,9.8,16.35,16.35,0,0,1-5.45,31.8c-3.35,0-56,.07-56,0h-.83a21.04,21.04,0,1,1,0-42.08,20.731,20.731,0,0,1,4.63.5Z"/>
        <path id="cloud-2" data-name="cloud" class="cls-1" d="M917.25,646.82a13.2,13.2,0,0,0,4.4-25.65l-2-.7-.12-2.08A26.84,26.84,0,0,0,868,609.6l-1,2.45-2.6-.58a17.154,17.154,0,0,0-3.93-.43,17.89,17.89,0,0,0,0,35.78h56.72Zm-24.48-60A33.139,33.139,0,0,1,925.67,616a19.51,19.51,0,0,1-8.42,37.1H861.38a.881.881,0,0,1-.3,0h-.6a24.19,24.19,0,0,1,0-48.38,25.733,25.733,0,0,1,2.782.151,33.14,33.14,0,0,1,29.5-18Z"/>
        <path id="cloud-3" data-name="cloud" class="cls-4" d="M840.9,567.6A38.49,38.49,0,0,0,767,580.2a21,21,0,0,0,7,40.8c4.3,0,71.88.1,71.8,0h1.06a27,27,0,1,0-5.94-53.35Z"/>
        <path id="cloud-4" data-name="cloud" class="cls-1" d="M774,617.8a17.83,17.83,0,0,1-5.93-34.64l2-.7.13-2.08A35.34,35.34,0,0,1,838,568.83l1,2.43,2.57-.58a23.86,23.86,0,1,1,5.24,47.13H774Zm31.42-76.95A41.64,41.64,0,0,0,764,578a24.14,24.14,0,0,0,10,46.11h71.67a1.74,1.74,0,0,0,.4,0h.8a30.15,30.15,0,0,0,0-60.3,30.715,30.715,0,0,0-4.08.28,41.65,41.65,0,0,0-37.36-23.23Z"/>
      </g>
      <g id="gateway">
        <path id="Rectangle-2-Copy-63" class="cls-1" d="M806.4,339.75V373.9c0,1.58-1.88,2.86-4.2,2.86s-4.2-1.28-4.2-2.86V339.75c0-1.58,1.88-2.87,4.2-2.87S806.4,338.18,806.4,339.75Z"/>
        <path id="Rectangle-2-Copy-66" class="cls-1" d="M802.32,368.77h15.39a4.2,4.2,0,0,1,4.2,4.2h0a4.2,4.2,0,0,1-4.2,4.19H802.32a4.2,4.2,0,0,1-4.2-4.19h0A4.2,4.2,0,0,1,802.32,368.77Z"/>
        <rect id="Rectangle-4-Copy-41" class="cls-6" width="56" height="56" rx="4.2" transform="translate(815.49 358.59)"/>
        <path id="Rectangle-4-Copy-41-2" data-name="Rectangle-4-Copy-41" class="cls-1" d="M823.5,366.6v40h40v-40Zm-3.8-8h47.6a4.21,4.21,0,0,1,4.2,4.2v47.6a4.23,4.23,0,0,1-4.2,4.2H819.7a4.21,4.21,0,0,1-4.2-4.2V362.8a4.19,4.19,0,0,1,4.2-4.2Z"/>
      </g>
      <g id="sensor-node_2">
        <path id="Rectangle-2-Copy-61" class="cls-1" d="M675.54,261.39v8.72c0,1.84-1.9,3.33-4.2,3.33s-4.2-1.48-4.2-3.32V261.4c0-1.84,1.87-3.33,4.2-3.33s4.2,1.5,4.2,3.33Zm28,0v8.72c0,1.84-1.88,3.33-4.2,3.33s-4.2-1.48-4.2-3.32V261.4c0-1.84,1.88-3.33,4.2-3.33s4.2,1.5,4.2,3.33Z"/>
        <path id="Rectangle-2-Copy-62" class="cls-1" d="M689.54,261.39v8.72c0,1.84-1.9,3.33-4.2,3.33s-4.2-1.48-4.2-3.32V261.4c0-1.84,1.87-3.33,4.2-3.33s4.2,1.5,4.2,3.33Z"/>
        <path id="Rectangle-2-Copy-61-2" data-name="Rectangle-2-Copy-61" class="cls-1" d="M675.54,203.35v8.73c0,1.84-1.9,3.33-4.2,3.33s-4.2-1.5-4.2-3.33v-8.73c0-1.83,1.87-3.32,4.2-3.32S675.54,201.53,675.54,203.35Zm28,0v8.73c0,1.84-1.88,3.33-4.2,3.33s-4.2-1.5-4.2-3.33v-8.73c0-1.83,1.88-3.32,4.2-3.32s4.18,1.5,4.18,3.32Z"/>
        <path id="Rectangle-2-Copy-62-2" data-name="Rectangle-2-Copy-62" class="cls-1" d="M689.54,203.35v8.73c0,1.84-1.9,3.33-4.2,3.33s-4.2-1.5-4.2-3.33v-8.73c0-1.83,1.87-3.32,4.2-3.32S689.54,201.53,689.54,203.35Z"/>
        <path id="Rectangle-2-Copy-63-2" data-name="Rectangle-2-Copy-63" class="cls-1" d="M648.24,187.16v36.57c0,1.58-1.88,2.86-4.2,2.86s-4.2-1.28-4.2-2.86V187.16c0-1.6,1.88-2.87,4.2-2.87S648.24,185.57,648.24,187.16Z"/>
        <path id="Rectangle-2-Copy-66-2" data-name="Rectangle-2-Copy-66" class="cls-1" d="M644.16,218.6h15.39a4.2,4.2,0,0,1,4.2,4.2h0a4.19,4.19,0,0,1-4.2,4.19H644.16a4.19,4.19,0,0,1-4.2-4.19h0A4.2,4.2,0,0,1,644.16,218.6Z"/>
        <rect id="Rectangle-4-Copy-41-3" data-name="Rectangle-4-Copy-41" class="cls-7" width="50" height="50" rx="4.2" transform="translate(660.33 211.42)"/>
        <path id="Rectangle-4-Copy-41-4" data-name="Rectangle-4-Copy-41" class="cls-1" d="M664.54,215.43a.19.19,0,0,0-.2.2v41.6a.2.2,0,0,0,.2.2h41.6a.22.22,0,0,0,.2-.2v-41.6a.2.2,0,0,0-.2-.2Zm0-8h41.6a8.2,8.2,0,0,1,8.2,8.2v41.6a8.22,8.22,0,0,1-8.2,8.2h-41.6a8.22,8.22,0,0,1-8.2-8.2v-41.6a8.19,8.19,0,0,1,8.2-8.2Z"/>
        <path id="Rectangle-Copy-188-2" data-name="Rectangle-Copy-188" class="cls-8" d="M676.84,217.83h27v37.28H682.61Z"/>
      </g>
      <g id="sensor-node_1">
        <path id="Rectangle-2-Copy-61-3" data-name="Rectangle-2-Copy-61" class="cls-1" d="M551.7,117.56v8.72c0,1.84-1.9,3.33-4.2,3.33s-4.2-1.48-4.2-3.32v-8.72c0-1.84,1.87-3.33,4.2-3.33s4.2,1.5,4.2,3.33Zm28,0v8.72c0,1.84-1.88,3.33-4.2,3.33s-4.2-1.48-4.2-3.32v-8.72c0-1.84,1.88-3.33,4.2-3.33s4.2,1.5,4.2,3.33Z"/>
        <path id="Rectangle-2-Copy-62-3" data-name="Rectangle-2-Copy-62" class="cls-1" d="M565.7,117.56v8.72c0,1.84-1.9,3.33-4.2,3.33s-4.2-1.48-4.2-3.32v-8.72c0-1.84,1.87-3.33,4.2-3.33s4.2,1.5,4.2,3.33Z"/>
        <path id="Rectangle-2-Copy-61-4" data-name="Rectangle-2-Copy-61" class="cls-1" d="M551.7,59.52v8.73c0,1.84-1.9,3.33-4.2,3.33s-4.2-1.5-4.2-3.33V59.52c0-1.83,1.87-3.32,4.2-3.32S551.7,57.7,551.7,59.52Zm28,0v8.73c0,1.84-1.88,3.33-4.2,3.33s-4.2-1.5-4.2-3.33V59.52c0-1.83,1.88-3.32,4.2-3.32s4.18,1.5,4.18,3.32Z"/>
        <path id="Rectangle-2-Copy-62-4" data-name="Rectangle-2-Copy-62" class="cls-1" d="M565.7,59.52v8.73c0,1.84-1.9,3.33-4.2,3.33s-4.2-1.5-4.2-3.33V59.52c0-1.83,1.87-3.32,4.2-3.32S565.7,57.7,565.7,59.52Z"/>
        <path id="Rectangle-2-Copy-63-3" data-name="Rectangle-2-Copy-63" class="cls-1" d="M524.4,43.33V79.9c0,1.58-1.88,2.86-4.2,2.86S516,81.48,516,79.9V43.33c0-1.6,1.88-2.87,4.2-2.87S524.4,41.74,524.4,43.33Z"/>
        <path id="Rectangle-2-Copy-66-3" data-name="Rectangle-2-Copy-66" class="cls-1" d="M520.32,74.77h15.39a4.2,4.2,0,0,1,4.2,4.2h0a4.2,4.2,0,0,1-4.2,4.19H520.32a4.2,4.2,0,0,1-4.2-4.19h0a4.2,4.2,0,0,1,4.2-4.2Z"/>
        <rect id="Rectangle-4-Copy-41-5" data-name="Rectangle-4-Copy-41" class="cls-7" width="50" height="50" rx="4.2" transform="translate(536.49 67.59)"/>
        <path id="Rectangle-4-Copy-41-6" data-name="Rectangle-4-Copy-41" class="cls-1" d="M540.7,71.6a.19.19,0,0,0-.2.2v41.6a.2.2,0,0,0,.2.2h41.6a.22.22,0,0,0,.2-.2V71.8a.2.2,0,0,0-.2-.2Zm0-8h41.6a8.2,8.2,0,0,1,8.2,8.2v41.6a8.22,8.22,0,0,1-8.2,8.2H540.7a8.22,8.22,0,0,1-8.2-8.2V71.8a8.19,8.19,0,0,1,8.2-8.2Z"/>
        <path id="Rectangle-Copy-188-3" data-name="Rectangle-Copy-188" class="cls-8" d="M553,74h27v37.28H558.77Z"/>
      </g>
      <g id="data-collection">
        <g id="Base-2" data-name="Base">
          <g id="baseline" transform="translate(0 -24)">
            <rect id="baseline_3-2" data-name="baseline_3" class="cls-1" width="300" height="7" rx="3.5" transform="translate(349 514.46)"/>
            <rect id="baseline_2-2" data-name="baseline_2" class="cls-1" width="82" height="7" rx="3.5" transform="translate(240 514.46)"/>
            <rect id="baseline_1-2" data-name="baseline_1" class="cls-1" width="176" height="7" rx="3.5" transform="translate(40 514.46)"/>
          </g>
        </g>
        <g id="drill-n-springe">
          <path id="Rectangle-Copy-192" class="cls-1" d="M278.2,266.2h6.73V411.68H278.2Z"/>
          <path id="Rectangle-Copy-194" class="cls-1" d="M278.2,441.74h6.73V493H278.2Z"/>
          <g id="springe">
            <circle id="Oval-Copy-98" class="cls-1" cx="3.36" cy="3.36" r="3.36" transform="translate(315.53 302.33)"/>
            <circle id="Oval-Copy-99" class="cls-1" cx="3.36" cy="3.36" r="3.36" transform="translate(324.77 302.33)"/>
            <circle id="Oval-Copy-100" class="cls-1" cx="3.36" cy="3.36" r="3.36" transform="translate(320.15 312.91)"/>
            <path id="Rectangle-3-Copy-28" class="cls-7" d="M313.24,263h20.63a4.21,4.21,0,0,1,4.2,4.2,3.737,3.737,0,0,1,0,.46l-2.37,21.2a4.22,4.22,0,0,1-4.2,3.74H316a4.19,4.19,0,0,1-4.16-3.65l-2.8-21.21a4.19,4.19,0,0,1,3.62-4.7,3.31,3.31,0,0,1,.58-.04Z"/>
            <path id="Rectangle-3-Copy-28-2" data-name="Rectangle-3-Copy-28" class="cls-1" d="M313.24,266.1a.32.32,0,0,0-.14,0,1,1,0,0,0-.9,1.17L315,288.5a1.06,1.06,0,0,0,1,.9h15.45a1.05,1.05,0,0,0,1.06-.92l2.37-21.2v-.12a1,1,0,0,0-1-1.05H313.24Zm0-6.3h20.63a7.36,7.36,0,0,1,7.34,7.36,4.571,4.571,0,0,1,0,.82l-2.38,21.2a7.36,7.36,0,0,1-7.3,6.53H316a7.34,7.34,0,0,1-7.28-6.38l-2.8-21.2a7.41,7.41,0,0,1,6.36-8.27,8,8,0,0,1,1-.06Z"/>
          </g>
          <g id="drill">
            <path id="Combined-Shape" class="cls-1" d="M248.67,318.45v3.6l-5.87-2.75v-3.6l5.88,2.75Zm0-4.4V307a2.94,2.94,0,1,0-5.87,0v4.3l5.88,2.74Zm0,12.4v.2a2.94,2.94,0,1,1-5.87,0v-3l5.88,2.75Z"/>
            <rect id="Rectangle-3-Copy-27" class="cls-7" width="26.48" height="26.04" rx="4.2" transform="translate(232.54 262.92)"/>
            <path id="Rectangle-3-Copy-27-2" data-name="Rectangle-3-Copy-27" class="cls-1" d="M236.74,266.07a1,1,0,0,0-1.05,1.05v17.65a1,1,0,0,0,1.05,1.05h18.08a1,1,0,0,0,1.05-1.05V267.12a1,1,0,0,0-1.05-1.05Zm0-6.3h18.08a7.36,7.36,0,0,1,7.35,7.35v17.65a7.36,7.36,0,0,1-7.35,7.35H236.74a7.36,7.36,0,0,1-7.35-7.35V267.12a7.36,7.36,0,0,1,7.35-7.35Z"/>
            <path id="Rectangle-3-Copy-29" class="cls-1" d="M242,292.34a1,1,0,0,0-1.05,1.05v7.22a1.06,1.06,0,0,0,1.06,1.05h7.5a1,1,0,0,0,1.05-1.05V293.4a1,1,0,0,0-1-1.06Zm0-6.3h7.5a7.36,7.36,0,0,1,7.35,7.35v7.22a7.34,7.34,0,0,1-7.34,7.35H242a7.36,7.36,0,0,1-7.35-7.35V293.4a7.36,7.36,0,0,1,7.36-7.36Z"/>
          </g>
          <rect id="top" class="cls-4" width="156.81" height="34.93" rx="4.2" transform="translate(202.49 234.8)"/>
          <path id="top-2" data-name="top" class="cls-1" d="M208.8,241.1v22.32H353V241.1Zm-2.1-6.3H355.1a4.2,4.2,0,0,1,4.2,4.2v26.52a4.2,4.2,0,0,1-4.2,4.2H206.7a4.19,4.19,0,0,1-4.2-4.2V239a4.19,4.19,0,0,1,4.2-4.2Z"/>
        </g>
        <g id="articles">
          <rect id="Rectangle-4-Copy-39" class="cls-7" width="30.42" height="30.42" rx="4.2" transform="translate(152.57 366.65)"/>
          <path id="Rectangle-4-Copy-39-2" data-name="Rectangle-4-Copy-39" class="cls-1" d="M156.77,369.8a1,1,0,0,0-1.05,1.05v22a1,1,0,0,0,1.05,1.05h22a1,1,0,0,0,1.05-1.05v-22a1,1,0,0,0-1.05-1.05Zm0-6.3h22a7.36,7.36,0,0,1,7.35,7.35v22a7.36,7.36,0,0,1-7.35,7.35h-22a7.36,7.36,0,0,1-7.35-7.35v-22A7.36,7.36,0,0,1,156.77,363.5Z"/>
          <path id="Rectangle-Copy-206" class="cls-3" d="M164.87,366.17h17.57v29.94H170.81Z"/>
          <rect id="Rectangle-4-Copy-40" class="cls-4" width="47.38" height="47.38" rx="4.2" transform="translate(179.16 349.87)"/>
          <path id="Rectangle-4-Copy-40-2" data-name="Rectangle-4-Copy-40" class="cls-1" d="M183.37,353a1,1,0,0,0-1.06,1.05v39a1,1,0,0,0,1.05,1.05h39a1,1,0,0,0,1-1.05v-39a1,1,0,0,0-1-1.05h-39Zm0-6.3h39a7.36,7.36,0,0,1,7.35,7.35v39a7.36,7.36,0,0,1-7.35,7.35h-39a7.35,7.35,0,0,1-7.34-7.35v-39a7.36,7.36,0,0,1,7.35-7.35Z"/>
          <path id="Rectangle" class="cls-9" d="M208.57,360.87h6v16h-6Z"/>
          <path id="Rectangle-2" data-name="Rectangle" class="cls-1" d="M203.57,360.87h3v16h-3Zm-4,0h2v16h-2Zm-4,0h2v16h-2Zm-6,0h4v16h-4Z"/>
          <rect id="Rectangle-4-Copy-38" class="cls-10" width="22.19" height="22.17" rx="4.2" transform="translate(359.57 374.87)"/>
        </g>
        <g id="production-line">
          <g id="Combined-Shape-Copy-20">
            <path id="path-1" class="cls-7" d="M131.1,412.94h-.34a14.32,14.32,0,0,0,0,28.63H588.65a14.31,14.31,0,0,0,0-28.62H131.1Z"/>
            <path id="Pfad_1" data-name="Pfad 1" class="cls-11" d="M131,409.8H588.67a17.46,17.46,0,1,1,0,34.92H130.76a17.46,17.46,0,1,1,0-34.92Z"/>
          </g>
          <circle id="Oval-Copy-97" class="cls-12" cx="3.36" cy="3.36" r="3.36" transform="translate(127.45 424.19)"/>
          <path id="Oval-Copy-97-2" data-name="Oval-Copy-97" class="cls-1" d="M130.8,430.9a3.36,3.36,0,1,0-3.34-3.36,3.36,3.36,0,0,0,3.34,3.36Zm0,6.3a9.65,9.65,0,1,1,6.84-2.823,9.65,9.65,0,0,1-6.84,2.823Z"/>
          <circle id="Oval-Copy-101" class="cls-12" cx="3.36" cy="3.36" r="3.36" transform="translate(584.51 424.19)"/>
          <path id="Oval-Copy-101-2" data-name="Oval-Copy-101" class="cls-1" d="M587.87,430.9a3.36,3.36,0,1,0-3.36-3.36,3.36,3.36,0,0,0,3.36,3.36Zm0,6.3a9.65,9.65,0,1,1,6.84-2.823,9.65,9.65,0,0,1-6.84,2.823Z"/>
          <path id="Rectangle-Copy-207" class="cls-8" d="M280.6,412.77H415.47v28.68H286.24Z"/>
        </g>
        <g id="mashine">
          <rect id="Rectangle-Copy-183" class="cls-4" width="118" height="230" rx="4.2" transform="translate(414.99 266.26)"/>
          <path id="Rectangle-Copy-183-2" data-name="Rectangle-Copy-183" class="cls-1" d="M421.29,272.56V490h105.4V272.56Zm-2.1-6.3h109.6a4.2,4.2,0,0,1,4.2,4.2v221.6a4.2,4.2,0,0,1-4.2,4.2H419.19a4.2,4.2,0,0,1-4.2-4.2V270.46a4.2,4.2,0,0,1,4.2-4.2Z"/>
          <path id="Rectangle-Copy-184" class="cls-3" d="M442.17,272.38h84.56v216.7H484.45Z"/>
          <rect id="Rectangle-Copy-190" class="cls-7" width="25.19" height="190.52" rx="4.2" transform="translate(487.77 286.73)"/>
          <path id="Rectangle-Copy-190-2" data-name="Rectangle-Copy-190" class="cls-1" d="M494.07,293V471h12.6V293Zm-2.1-6.3h16.8a4.23,4.23,0,0,1,4.2,4.2V473.06a4.23,4.23,0,0,1-4.2,4.2H492a4.21,4.21,0,0,1-4.2-4.2V290.92a4.21,4.21,0,0,1,4.2-4.2Z"/>
          <circle id="Oval-Copy-102" class="cls-1" cx="4.2" cy="4.2" r="4.2" transform="translate(436.13 286.73)"/>
          <circle id="Oval-Copy-104" class="cls-1" cx="4.2" cy="4.2" r="4.2" transform="translate(452.75 286.73)"/>
        </g>
        <g id="data_bubbles">
          <g id="data_sek">
            <circle id="oval_sek" class="cls-1" cx="22" cy="22" r="22" transform="translate(545 356)"/>
            <path id="sek" class="cls-12" d="M4.236.176A7.428,7.428,0,0,1,1.547-.343L.993-.571A.473.473,0,0,1,.782-.7.287.287,0,0,1,.721-.888a1.445,1.445,0,0,1,.018-.167L.87-1.529a.6.6,0,0,1,.114-.246.235.235,0,0,1,.185-.079.7.7,0,0,1,.193.044l.475.193A7.93,7.93,0,0,0,2.958-1.3a5.528,5.528,0,0,0,1.121.123q1.459,0,1.459-.958a.712.712,0,0,0-.149-.47,1.094,1.094,0,0,0-.382-.29,5.5,5.5,0,0,0-.646-.242l-1.248-.4a5.948,5.948,0,0,1-1.1-.439,2.042,2.042,0,0,1-.751-.7A2.065,2.065,0,0,1,.967-5.818a2.231,2.231,0,0,1,.356-1.248,2.318,2.318,0,0,1,1.055-.848,4.24,4.24,0,0,1,1.692-.3A7.045,7.045,0,0,1,5.3-8.112a5.084,5.084,0,0,1,1.059.3l.5.193a.377.377,0,0,1,.207.123.337.337,0,0,1,.057.2,1.445,1.445,0,0,1-.018.167l-.123.5a.632.632,0,0,1-.119.237.235.235,0,0,1-.18.07.649.649,0,0,1-.167-.026l-.448-.176a4.4,4.4,0,0,0-.835-.224,5.621,5.621,0,0,0-.976-.083,1.994,1.994,0,0,0-1.134.246.822.822,0,0,0-.343.712.881.881,0,0,0,.149.536.919.919,0,0,0,.387.3,5.733,5.733,0,0,0,.633.215l1.2.4a6.474,6.474,0,0,1,1.147.426,2.008,2.008,0,0,1,.76.668,1.939,1.939,0,0,1,.3,1.121A2.2,2.2,0,0,1,7-.94a2.315,2.315,0,0,1-1.068.826A4.444,4.444,0,0,1,4.236.176Zm8.587,0a4.211,4.211,0,0,1-2.958-1,3.937,3.937,0,0,1-1.094-3.05v-.308a4.74,4.74,0,0,1,.47-2.206,3.147,3.147,0,0,1,1.34-1.367,4.351,4.351,0,0,1,2.065-.461,4.946,4.946,0,0,1,1.846.308,2.5,2.5,0,0,1,1.16.879,2.318,2.318,0,0,1,.4,1.354,2.176,2.176,0,0,1-.4,1.375,2.234,2.234,0,0,1-1.169.734,8.106,8.106,0,0,1-2.013.264l-1.916.062a2.127,2.127,0,0,0,.866,1.49,3,3,0,0,0,1.736.479,5.032,5.032,0,0,0,.866-.079,6.052,6.052,0,0,0,.831-.2l.431-.167a.615.615,0,0,1,.149-.026.214.214,0,0,1,.163.07.56.56,0,0,1,.11.237l.158.51a.751.751,0,0,1,.026.176.321.321,0,0,1-.246.316l-.519.22a4.91,4.91,0,0,1-1.063.294A7.422,7.422,0,0,1,12.823.176Zm-.738-4.562a10.313,10.313,0,0,0,1.323-.092,1.49,1.49,0,0,0,.756-.321.956.956,0,0,0,.286-.765,1.188,1.188,0,0,0-.426-.962,2.088,2.088,0,0,0-1.349-.356,2.089,2.089,0,0,0-1.63.606,2.873,2.873,0,0,0-.558,1.942ZM18.466,0q-.712,0-.712-.492v-10.74q0-.475.712-.475h.36q.721,0,.721.475V-.492a.439.439,0,0,1-.163.36A.9.9,0,0,1,18.826,0ZM23.73,0a1.193,1.193,0,0,1-1.063-.492L20.127-3.7A.572.572,0,0,1,20-4.043a.49.49,0,0,1,.123-.316l2.566-3.2a1.216,1.216,0,0,1,1.072-.492h.668q.5,0,.5.237a.47.47,0,0,1-.123.255l-3.094,3.48L24.812-.492a.508.508,0,0,1,.123.264q0,.229-.5.229Z" transform="translate(554.26 385)"/>
          </g>
          <g id="data_c">
            <circle id="oval_c" class="cls-1" cx="22" cy="22" r="22" transform="translate(452 214)"/>
            <path id="_C" data-name="°C" class="cls-12" d="M4.236-6.53a3.094,3.094,0,0,1-1.45-.334A2.512,2.512,0,0,1,1.78-7.8a2.579,2.579,0,0,1-.365-1.371,2.722,2.722,0,0,1,.365-1.415,2.535,2.535,0,0,1,1.006-.958,3.029,3.029,0,0,1,1.45-.343,2.9,2.9,0,0,1,1.428.343,2.452,2.452,0,0,1,.967.958,2.83,2.83,0,0,1,.347,1.415A2.679,2.679,0,0,1,6.631-7.8a2.419,2.419,0,0,1-.971.932A2.97,2.97,0,0,1,4.236-6.53Zm0-1.2a1.383,1.383,0,0,0,1.028-.4,1.44,1.44,0,0,0,.4-1.059,1.526,1.526,0,0,0-.4-1.094A1.352,1.352,0,0,0,4.236-10.7a1.431,1.431,0,0,0-1.063.417A1.488,1.488,0,0,0,2.76-9.185,1.41,1.41,0,0,0,3.173-8.13,1.456,1.456,0,0,0,4.236-7.726Zm10.4,7.9a5.827,5.827,0,0,1-2.9-.677A4.369,4.369,0,0,1,9.905-2.492a7.4,7.4,0,0,1-.624-3.195v-.343a7.375,7.375,0,0,1,.624-3.19,4.373,4.373,0,0,1,1.824-1.986,5.827,5.827,0,0,1,2.9-.677,8.518,8.518,0,0,1,2.813.492l.782.29a.534.534,0,0,1,.237.149.341.341,0,0,1,.07.22.8.8,0,0,1-.035.237l-.141.483a.806.806,0,0,1-.127.3.242.242,0,0,1-.2.092.54.54,0,0,1-.185-.035l-.694-.237a6.515,6.515,0,0,0-2.162-.378A3.379,3.379,0,0,0,12.3-9.211a4.735,4.735,0,0,0-.918,3.182v.343A4.769,4.769,0,0,0,12.3-2.492a3.372,3.372,0,0,0,2.694,1.059,5.911,5.911,0,0,0,1.077-.1,7.591,7.591,0,0,0,1.085-.29l.694-.237a.54.54,0,0,1,.185-.035.242.242,0,0,1,.2.092.806.806,0,0,1,.127.3l.141.475a.8.8,0,0,1,.035.237.337.337,0,0,1-.07.224.5.5,0,0,1-.237.136l-.782.3A8.539,8.539,0,0,1,14.634.176Z" transform="translate(464.35 243)"/>
          </g>
          <g id="data_m3">
            <circle id="oval_m3" class="cls-1" cx="22" cy="22" r="22" transform="translate(301 181)"/>
            <path id="m3" class="cls-12" d="M1.591,0Q.905,0,.905-.492V-5a3.16,3.16,0,0,1,.857-2.4,3.623,3.623,0,0,1,2.58-.813,3.574,3.574,0,0,1,2.566.87,3.454,3.454,0,0,1,2.549-.87q3.419,0,3.419,3.217V-.492a.456.456,0,0,1-.149.36A.823.823,0,0,1,12.19,0h-.422a.806.806,0,0,1-.527-.132.456.456,0,0,1-.149-.36V-4.966a2.05,2.05,0,0,0-.4-1.4A1.647,1.647,0,0,0,9.422-6.8a2.06,2.06,0,0,0-.967.189,1.064,1.064,0,0,0-.5.589A3.092,3.092,0,0,0,7.8-4.966V-.492Q7.8,0,7.119,0H6.68a.827.827,0,0,1-.532-.136.442.442,0,0,1-.163-.356V-4.966a3.092,3.092,0,0,0-.149-1.059,1.06,1.06,0,0,0-.505-.589A2.087,2.087,0,0,0,4.359-6.8a1.632,1.632,0,0,0-1.27.435,2.066,2.066,0,0,0-.391,1.4V-.492a.45.45,0,0,1-.154.36A.861.861,0,0,1,2,0ZM18.905.176A9.4,9.4,0,0,1,15.645-.4l-.879-.316a.7.7,0,0,1-.281-.167.352.352,0,0,1-.088-.246.991.991,0,0,1,.044-.246l.176-.466a1.317,1.317,0,0,1,.167-.347.254.254,0,0,1,.211-.1.616.616,0,0,1,.193.035L16-1.942a13.028,13.028,0,0,0,1.424.439,5.92,5.92,0,0,0,1.406.167A3.162,3.162,0,0,0,20.193-1.6a1.9,1.9,0,0,0,.839-.725,2.011,2.011,0,0,0,.281-1.068,1.635,1.635,0,0,0-.633-1.4,3.117,3.117,0,0,0-1.872-.47h-1.09q-.431,0-.431-.571V-6.1q0-.562.431-.562h1.046a2.7,2.7,0,0,0,1.789-.519A1.759,1.759,0,0,0,21.164-8.6a1.623,1.623,0,0,0-.549-1.31,2.543,2.543,0,0,0-1.674-.466,7.876,7.876,0,0,0-2.733.563l-.756.281a.54.54,0,0,1-.185.035.246.246,0,0,1-.207-.1,1.076,1.076,0,0,1-.145-.325l-.158-.466a.991.991,0,0,1-.044-.246q0-.281.334-.387l.835-.325a9.407,9.407,0,0,1,3.164-.545A5.412,5.412,0,0,1,21.2-11.5a2.928,2.928,0,0,1,1.345,1.09A2.953,2.953,0,0,1,23-8.771a2.846,2.846,0,0,1-.488,1.657,2.949,2.949,0,0,1-1.34,1.059,2.988,2.988,0,0,1,1.516.98,2.721,2.721,0,0,1,.541,1.745A3.225,3.225,0,0,1,22.7-1.507,3.472,3.472,0,0,1,21.195-.268,5.5,5.5,0,0,1,18.905.176Z" transform="translate(310.95 210)"/>
          </g>
          <g id="data_kw">
            <circle id="oval_kw" class="cls-1" cx="22" cy="22" r="22" transform="translate(224 181)"/>
            <path id="kW" class="cls-12" d="M1.688,0Q.976,0,.976-.492v-10.74q0-.475.712-.475h.36q.721,0,.721.475V-.492a.439.439,0,0,1-.163.36A.9.9,0,0,1,2.048,0ZM6.952,0A1.193,1.193,0,0,1,5.889-.492L3.349-3.7a.572.572,0,0,1-.123-.343.49.49,0,0,1,.123-.316l2.566-3.2a1.216,1.216,0,0,1,1.072-.492h.668q.5,0,.5.237a.47.47,0,0,1-.123.255L4.939-4.078,8.033-.492a.508.508,0,0,1,.123.264q0,.229-.5.229Zm6.1,0a1.329,1.329,0,0,1-1.433-1.151L9.448-11.145a1.445,1.445,0,0,1-.018-.167.333.333,0,0,1,.154-.29.963.963,0,0,1,.523-.105h.475a1.306,1.306,0,0,1,.7.158.514.514,0,0,1,.268.4l1.7,9.255a.14.14,0,0,0,.158.132.107.107,0,0,0,.079-.026.225.225,0,0,0,.044-.105l2.153-9.255q.1-.562.914-.562h.29q.782,0,.888.563l2.18,9.255q.026.132.141.132a.136.136,0,0,0,.149-.132l1.688-9.255q.079-.562.888-.562h.343q.659,0,.659.4a1.058,1.058,0,0,1-.018.158L21.6-1.151A1.265,1.265,0,0,1,20.25,0h-.272a1.373,1.373,0,0,1-.936-.3,1.41,1.41,0,0,1-.444-.848L16.655-8.982l-1.9,7.831A1.325,1.325,0,0,1,13.307,0Z" transform="translate(233.24 209.25)"/>
          </g>
          <g id="data_number">
            <circle id="oval_number" class="cls-1" cx="22" cy="22" r="22" transform="translate(113 323)"/>
            <path id="_" data-name="#" class="cls-12" d="M2.4,0a.37.37,0,0,1-.29-.092A.416.416,0,0,1,2.03-.369L2.039-.51l.439-3.138h-1.2a.476.476,0,0,1-.338-.127A.511.511,0,0,1,.8-4.166v-.22a.511.511,0,0,1,.136-.391A.476.476,0,0,1,1.274-4.9H2.663l.272-1.96H1.274A.467.467,0,0,1,.936-7,.539.539,0,0,1,.8-7.4v-.2A.524.524,0,0,1,.936-8a.476.476,0,0,1,.338-.127H3.111l.439-3.155q.044-.422.536-.422h.466q.4,0,.4.378a.967.967,0,0,1-.009.149L4.509-8.13H6.442l.448-3.155q.035-.422.545-.422h.448a.354.354,0,0,1,.4.4.728.728,0,0,1-.009.132L7.849-8.13H9.1A.431.431,0,0,1,9.422-8a.559.559,0,0,1,.123.4v.211a.559.559,0,0,1-.123.4.431.431,0,0,1-.325.127H7.673L7.4-4.9H9.1a.431.431,0,0,1,.325.127.545.545,0,0,1,.123.391v.229a.528.528,0,0,1-.123.387.44.44,0,0,1-.325.123H7.233L6.776-.4a.455.455,0,0,1-.5.4H5.739a.413.413,0,0,1-.29-.083.343.343,0,0,1-.088-.259A1.445,1.445,0,0,1,5.379-.51l.448-3.138H3.9L3.445-.4A.425.425,0,0,1,3.287-.1a.548.548,0,0,1-.343.1ZM5.994-4.9l.281-1.96H4.342L4.061-4.9Z" transform="translate(129.83 351.02)"/>
          </g>
        </g>
      </g>
      <g id="connections">
        <g id="solid_lines">
          <g id="solid_lines_horizontal">
            <line id="solid_line_horizontal_2" class="cls-13" x1="138.26" transform="translate(506.45 236.17)"/>
            <line id="solid_line_horizontal_1" class="cls-13" x1="387.02" transform="translate(134.82 92.66)"/>
          </g>
          <g id="solid_lines_vertical">
            <line id="solid_line_vertical_5" class="cls-13" y1="108.65" transform="translate(566.65 236.72)"/>
            <line id="solid_line_vertical_4" class="cls-13" y1="110.4" transform="translate(473.65 92.97)"/>
            <line id="solid_line_vertical_3" class="cls-13" y1="78" transform="translate(322.82 92.97)"/>
            <line id="solid_line_vertical_2" class="cls-13" y1="78" transform="translate(245.82 92.97)"/>
            <line id="solid_line_vertical_1" class="cls-13" y1="219.41" transform="translate(134.82 92.97)"/>
          </g>
        </g>
        <g id="dotted_lines">
          <g id="dotted_lines_horizontal">
            <line id="dotted_line_horizontal_3" class="cls-14" x1="316.02" transform="translate(527.01 703.37)"/>
            <line id="dotted_line_horizontal_2" class="cls-14" x1="59.04" transform="translate(783.7 236.16)"/>
            <line id="dotted_line_horizontal_1" class="cls-14" x1="182.95" transform="translate(659.62 92.67)"/>
          </g>
          <g id="dotted_lines_vertical">
            <line id="solid_lines_vertical_3" class="cls-14" y2="37.15" transform="translate(843.02 663.66)"/>
            <line id="solid_lines_vertical_2" class="cls-14" y2="48.65" transform="translate(842.84 425.81)"/>
            <line id="dotted_line_vertical_1" class="cls-14" y2="186.95" transform="translate(842.99 92.67)"/>
          </g>
        </g>
        <g id="wireless">
          <g id="wireless_4">
            <path id="Path-2-Copy-36" class="cls-15" d="M873.36,521.13c-32.68,22.5-61,0-61,0"/>
            <path id="Path-2-Copy-38" class="cls-15" d="M861.36,507.13c-19.82,13.5-37,0-37,0"/>
            <circle id="Oval-2-Copy-2" class="cls-1" cx="6" cy="6" r="6" transform="translate(836.36 484.13)"/>
          </g>
          <g id="wireless_3">
            <path id="Path-2-Copy-36-2" data-name="Path-2-Copy-36" class="cls-15" d="M873.36,327.13c-32.68,22.5-61,0-61,0"/>
            <path id="Path-2-Copy-38-2" data-name="Path-2-Copy-38" class="cls-15" d="M861.36,313.13c-19.82,13.5-37,0-37,0"/>
            <circle id="Oval-2-Copy-2-2" data-name="Oval-2-Copy-2" class="cls-1" cx="6" cy="6" r="6" transform="translate(836.36 290.13)"/>
          </g>
          <g id="wireless_2">
            <path id="Path-2-Copy-30" class="cls-15" d="M762.84,267c22.5-32.87,0-61.37,0-61.37"/>
            <path id="Path-2-Copy-40" class="cls-15" d="M749.84,254.43c13.5-19.72,0-36.82,0-36.82"/>
            <circle id="Oval-2-Copy-5" class="cls-1" cx="6" cy="6" r="6" transform="translate(723.84 229.61)"/>
          </g>
          <g id="wireless_1">
            <path id="Path-2-Copy-29" class="cls-15" d="M637.5,123.5c22.5-32.68,0-61,0-61"/>
            <path id="Path-2-Copy-35" class="cls-15" d="M625.5,110.5c13.5-19.82,0-37,0-37"/>
            <circle id="Oval-2-Copy-3" class="cls-1" cx="6" cy="6" r="6" transform="translate(599 86)"/>
          </g>
        </g>
      </g>
    </g>
  </g>
</svg>
