<svg xmlns="http://www.w3.org/2000/svg" viewBox="500 398 102.76 114.556">
  <defs>
    <style>
      .cls-1 {
        fill: #FFFFFF;
        fill-rule: evenodd;
      }
    </style>
  </defs>
  <g id="Frau" transform="translate(499.716 397.584)">
    <g id="Frau-1">
      <path id="Fill-31" class="cls-1" d="M1.409,114.972a1.125,1.125,0,0,1-1.125-1.125V96.195a28.958,28.958,0,0,1,17.725-26.95A158.08,158.08,0,0,1,37.417,61.98a1.125,1.125,0,1,1,.609,2.166A156.329,156.329,0,0,0,18.9,71.31,26.741,26.741,0,0,0,2.534,96.195v17.652A1.125,1.125,0,0,1,1.409,114.972Zm100.51,0a1.125,1.125,0,0,1-1.125-1.125V96.195A26.741,26.741,0,0,0,84.429,71.31a157.1,157.1,0,0,0-19.1-7.2,1.125,1.125,0,0,1,.613-2.165,158.834,158.834,0,0,1,19.377,7.3,28.958,28.958,0,0,1,17.725,26.95v17.652A1.125,1.125,0,0,1,101.919,114.972Z"/>
      <path id="Fill-32" class="cls-1" d="M51.664,72.27c-8.929,0-22.523-13.512-23.039-25.484-3.083-1.824-5.409-6.984-5.409-12.237a1.125,1.125,0,0,1,2.25,0c0,4.631,2.153,9.439,4.7,10.5a1.126,1.126,0,0,1,.692,1.039c0,11.253,13.573,23.931,20.805,23.931S72.469,57.342,72.469,46.089a1.126,1.126,0,0,1,.692-1.039c2.548-1.061,4.7-5.87,4.7-10.5a1.125,1.125,0,0,1,2.25,0c0,5.254-2.326,10.414-5.408,12.238C74.188,58.758,60.593,72.27,51.664,72.27"/>
      <path id="Fill-33" class="cls-1" d="M29.734,40.028A1.125,1.125,0,0,1,28.609,38.9v-5.81a1.125,1.125,0,0,1,2.25,0V38.9A1.125,1.125,0,0,1,29.734,40.028Zm43.86,0A1.125,1.125,0,0,1,72.469,38.9v-5.81a1.125,1.125,0,0,1,2.25,0V38.9A1.125,1.125,0,0,1,73.594,40.028Z"/>
      <path id="Fill-34" class="cls-1" d="M84.4,35.4a1.125,1.125,0,0,1-1.125-1.125,31.612,31.612,0,0,0-63.223,0,1.125,1.125,0,0,1-2.25,0,33.862,33.862,0,0,1,67.723,0A1.125,1.125,0,0,1,84.4,35.4"/>
      <path id="Fill-35" class="cls-1" d="M51.664,114.972h0a1.126,1.126,0,0,1-1.077-.8l-15.2-50.78a1.125,1.125,0,0,1,2.156-.645l14.127,47.187L65.853,62.708a1.125,1.125,0,0,1,2.154.647L52.741,114.17A1.124,1.124,0,0,1,51.664,114.972Zm11.133,0a1.125,1.125,0,0,1-.872-1.834L72,100.724l-4.791-7.139a1.125,1.125,0,0,1,1.073-1.743l8.123,1.009-.033-20.136A1.125,1.125,0,0,1,77.5,71.588h0a1.125,1.125,0,0,1,1.125,1.123l.035,21.411A1.126,1.126,0,0,1,77.4,95.24l-6.942-.862,3.881,5.782a1.126,1.126,0,0,1-.062,1.336l-10.6,13.06A1.122,1.122,0,0,1,62.8,114.972Zm-22.263,0a1.122,1.122,0,0,1-.874-.416l-10.6-13.06A1.126,1.126,0,0,1,29,100.16l3.881-5.782-6.942.862a1.124,1.124,0,0,1-1.264-1.116l0-21.411a1.125,1.125,0,0,1,2.25,0l0,20.138,8.125-1.009a1.125,1.125,0,0,1,1.073,1.743l-4.791,7.139,10.077,12.414a1.125,1.125,0,0,1-.872,1.834Z"/>
      <path id="Fill-36" class="cls-1" d="M51.664,89.564a17.659,17.659,0,0,1-8.835-2.372,1.125,1.125,0,1,1,1.127-1.947A15.64,15.64,0,0,0,59.4,85.227a1.125,1.125,0,1,1,1.131,1.944,17.655,17.655,0,0,1-8.871,2.393"/>
      <path id="Fill-37" class="cls-1" d="M7.587,73.635c-.024,0-.046,0-.069,0a1.125,1.125,0,0,1-1.055-1.191c.22-3.59,2.526-5.16,4.562-6.545,1.841-1.252,3.431-2.334,3.582-4.821.155-2.526-1.3-3.951-2.993-5.6C9.8,53.7,7.731,51.682,7.948,48.13c.215-3.507,2.982-5.768,5.423-7.763C15.65,38.5,17.8,36.745,17.8,34.277a1.125,1.125,0,0,1,2.25,0c0,3.535-2.673,5.72-5.258,7.832-2.287,1.869-4.446,3.634-4.6,6.158s1.3,3.95,2.993,5.6c1.82,1.779,3.883,3.794,3.667,7.346-.22,3.591-2.527,5.161-4.563,6.545-1.841,1.252-3.431,2.334-3.582,4.822a1.125,1.125,0,0,1-1.122,1.056"/>
      <path id="Fill-38" class="cls-1" d="M95.742,73.635a1.125,1.125,0,0,1-1.122-1.056c-.152-2.488-1.742-3.569-3.583-4.822C89,66.373,86.694,64.8,86.475,61.212c-.217-3.552,1.846-5.567,3.667-7.346,1.688-1.649,3.146-3.074,2.992-5.6-.155-2.547-2.338-4.348-4.65-6.255-2.56-2.113-5.208-4.3-5.208-7.735a1.125,1.125,0,0,1,2.25,0c0,2.377,2.133,4.137,4.391,6,2.46,2.03,5.248,4.33,5.463,7.853.217,3.552-1.847,5.567-3.666,7.346-1.69,1.649-3.148,3.074-2.993,5.6.151,2.487,1.741,3.569,3.582,4.821,2.036,1.385,4.343,2.955,4.563,6.544a1.125,1.125,0,0,1-1.054,1.192c-.024,0-.046,0-.07,0"/>
      <path id="Fill-39" class="cls-1" d="M73.6,34.218a1.159,1.159,0,0,1-.225-.022A32.323,32.323,0,0,1,51.664,18.271,32.323,32.323,0,0,1,29.958,34.2a1.125,1.125,0,0,1-.447-2.2A30.068,30.068,0,0,0,50.646,15.328a1.125,1.125,0,0,1,2.037,0A30.067,30.067,0,0,0,73.817,31.991a1.125,1.125,0,0,1-.222,2.227"/>
    </g>
  </g>
</svg>
