<?xml version="1.0" encoding="UTF-8"?>
<svg width="275px" height="132px" viewBox="0 0 275 132" version="1.1" xmlns="http://www.w3.org/2000/svg" xmlns:xlink="http://www.w3.org/1999/xlink">
    <!-- Generator: Sketch 48.2 (47327) - http://www.bohemiancoding.com/sketch -->
    <title>Group</title>
    <desc>Created with Sketch.</desc>
    <defs>
        <path d="M113.792434,14.2280762 L121.426656,14.2280762 C123.746252,14.2280762 125.626656,16.1084802 125.626656,18.4280761 C125.626656,18.5844469 125.617923,18.7406957 125.600498,18.8960926 L124.654682,27.3310219 C124.416385,29.4561942 122.619331,31.0630053 120.48084,31.0630053 L114.900725,31.0630053 C112.792627,31.0630053 111.011146,29.5002868 110.736517,27.4101534 L109.628226,18.9752241 C109.326045,16.6753955 110.945458,14.5660496 113.245286,14.2638681 C113.426694,14.2400323 113.609467,14.2280762 113.792434,14.2280762 Z" id="path-1"></path>
        <rect id="path-2" x="70.0875862" y="14.2120762" width="15.7326455" height="14.987705" rx="4.19999993"></rect>
        <rect id="path-3" x="72.8180453" y="26.3449802" width="10.2717272" height="9.78189151" rx="4.19999993"></rect>
        <rect id="path-4" x="56" y="0" width="79" height="18" rx="4.19999993"></rect>
        <rect id="path-5" x="31" y="67.5549176" width="16.9256752" height="17.0366092" rx="4.19999993"></rect>
        <rect id="path-6" x="44.4672045" y="59" width="25.5160932" height="25.6833304" rx="4.19999993"></rect>
        <rect id="path-7" x="135.832618" y="71.745098" width="12.7584042" height="12.8323765" rx="4.19999993"></rect>
        <path d="M20.7796938,90.4759573 C20.8045409,90.4713764 20.8301541,90.4689825 20.8563264,90.4689825 L251.360264,90.4689825 C251.386436,90.4689825 251.41205,90.4713764 251.436897,90.4759573 C251.543698,90.4713236 251.6511,90.4689825 251.759055,90.4689825 C255.753261,90.4689825 258.991205,93.6737254 258.991205,97.6269761 C258.991205,101.580227 255.753261,104.78497 251.759055,104.78497 C251.6511,104.78497 251.543698,104.782629 251.436897,104.777995 C251.41205,104.782576 251.386436,104.78497 251.360264,104.78497 L20.8563264,104.78497 C20.8301541,104.78497 20.8045409,104.782576 20.7796938,104.777995 C20.6728927,104.782629 20.5654901,104.78497 20.4575351,104.78497 C16.4633294,104.78497 13.225386,101.580227 13.225386,97.6269761 C13.225386,93.6737254 16.4633294,90.4689825 20.4575351,90.4689825 C20.5654901,90.4689825 20.6728927,90.4713236 20.7796938,90.4759573 Z" id="path-8"></path>
        <ellipse id="path-9" cx="20.4787437" cy="97.7739143" rx="1.69669188" ry="1.67929468"></ellipse>
        <ellipse id="path-10" cx="251.356091" cy="97.7739143" rx="1.69669188" ry="1.67929468"></ellipse>
        <rect id="path-11" x="164" y="16" width="60" height="116" rx="4.19999993"></rect>
        <rect id="path-12" x="201.00682" y="26.3265065" width="12.8093574" height="96.0863211" rx="4.19999993"></rect>
    </defs>
    <g id="Mobile" stroke="none" stroke-width="1" fill="none" fill-rule="evenodd" transform="translate(-50.000000, -244.000000)">
        <g id="Group" transform="translate(50.000000, 244.000000)">
            <path d="M0,130.5 C0,131.328427 0.995127742,132 2.22268002,132 L111.77732,132 C113.004872,132 114,131.328427 114,130.5 C114,129.671573 113.004872,129 111.77732,129 L2.22268002,129 C0.995127742,129 0,129.671573 0,130.5 Z" id="Rectangle-Copy-213" fill="#FFFFFF"></path>
            <path d="M126,130.5 C126,131.328427 127.300649,132 128.905082,132 L272.094918,132 C273.699351,132 275,131.328427 275,130.5 C275,129.671573 273.699351,129 272.094918,129 L128.905082,129 C127.300649,129 126,129.671573 126,130.5 Z" id="Rectangle-Copy-215" fill="#FFFFFF"></path>
            <rect id="Rectangle-Copy-192" fill="#FFFFFF" x="95" y="16" width="3" height="74"></rect>
            <rect id="Rectangle-Copy-194" fill="#FFFFFF" x="102" y="105" width="2" height="26"></rect>
            <rect id="Rectangle-Copy-195" fill="#FFFFFF" transform="translate(96.500000, 16.000000) scale(-1, 1) rotate(90.000000) translate(-96.500000, -16.000000) " x="95" y="-16" width="3" height="64" rx="1.5"></rect>
            <ellipse id="Oval-Copy-98" fill="#FFFFFF" cx="115.260141" cy="35.597101" rx="1.67944907" ry="1.67929468"></ellipse>
            <ellipse id="Oval-Copy-99" fill="#FFFFFF" cx="119.878625" cy="35.597101" rx="1.67944907" ry="1.67929468"></ellipse>
            <ellipse id="Oval-Copy-100" fill="#FFFFFF" cx="117.569383" cy="40.8868792" rx="1.67944907" ry="1.67929468"></ellipse>
            <g id="Rectangle-3-Copy-28">
                <use fill="#E60055" fill-rule="evenodd" xlink:href="#path-1"></use>
                <path stroke="#FFFFFF" stroke-width="3" d="M113.792434,15.7280762 C113.674812,15.7280762 113.557316,15.7357622 113.440696,15.7510852 C111.962235,15.9453448 110.921184,17.3013529 111.115443,18.7798141 L112.223734,27.2147434 C112.400282,28.5584006 113.545519,29.5630053 114.900725,29.5630053 L120.48084,29.5630053 C121.855584,29.5630053 123.010833,28.5300553 123.164024,27.1638732 L124.10984,18.7289438 C124.121042,18.6290458 124.126656,18.5286002 124.126656,18.4280761 C124.126656,16.9369073 122.917825,15.7280762 121.426656,15.7280762 L113.792434,15.7280762 Z"></path>
            </g>
            <path d="M79.4491604,42.0004471 L79.4491604,43.7936913 L76.4153169,42.3789868 L76.4153169,40.5857427 L79.4491604,42.0004471 Z M79.4491604,39.7936913 L76.4153169,38.3789868 L76.4153169,36.3003577 C76.4153169,35.462585 77.0944659,34.783436 77.9322387,34.783436 C78.7700114,34.783436 79.4491604,35.462585 79.4491604,36.3003577 L79.4491604,39.7936913 Z M79.4491604,46.0004471 L79.4491604,46.0332521 C79.4491604,46.8710249 78.7700114,47.5501739 77.9322387,47.5501739 C77.0944659,47.5501739 76.4153169,46.8710249 76.4153169,46.0332521 L76.4153169,44.5857427 L79.4491604,46.0004471 Z" id="Combined-Shape" fill="#FFFFFF"></path>
            <g id="Rectangle-3-Copy-27">
                <use fill="#E60055" fill-rule="evenodd" xlink:href="#path-2"></use>
                <rect stroke="#FFFFFF" stroke-width="3" x="71.5875862" y="15.7120762" width="12.7326455" height="11.987705" rx="4.19999993"></rect>
            </g>
            <g id="Rectangle-3-Copy-29">
                <use fill="#00AAE1" fill-rule="evenodd" xlink:href="#path-3"></use>
                <rect stroke="#FFFFFF" stroke-width="3" x="74.3180453" y="27.8449802" width="7.27172724" height="6.78189151" rx="3.39094575"></rect>
            </g>
            <g id="Rectangle-Copy-191">
                <use fill="#8A8784" fill-rule="evenodd" xlink:href="#path-4"></use>
                <rect stroke="#FFFFFF" stroke-width="3" x="57.5" y="1.5" width="76" height="15" rx="4.19999993"></rect>
            </g>
            <g id="Rectangle-4-Copy-39">
                <use fill="#E60055" fill-rule="evenodd" xlink:href="#path-5"></use>
                <rect stroke="#FFFFFF" stroke-width="3" x="32.5" y="69.0549176" width="13.9256752" height="14.0366092" rx="4.19999993"></rect>
            </g>
            <g id="Rectangle-4-Copy-40">
                <use fill="#8A8784" fill-rule="evenodd" xlink:href="#path-6"></use>
                <rect stroke="#FFFFFF" stroke-width="3" x="45.9672045" y="60.5" width="22.5160932" height="22.6833304" rx="4.19999993"></rect>
            </g>
            <g id="Group-2" transform="translate(49.738197, 64.607843)">
                <rect id="Rectangle" fill="#F6F5F5" x="9.6223176" y="0" width="3.03862661" height="8.15686275"></rect>
                <rect id="Rectangle" fill="#FFFFFF" x="7.09012876" y="0" width="1.5193133" height="8.15686275"></rect>
                <rect id="Rectangle" fill="#FFFFFF" x="5.06437768" y="0" width="1.01287554" height="8.15686275"></rect>
                <rect id="Rectangle" fill="#FFFFFF" x="3.03862661" y="0" width="1.01287554" height="8.15686275"></rect>
                <rect id="Rectangle" fill="#FFFFFF" x="0" y="0" width="2.02575107" height="8.15686275"></rect>
            </g>
            <g id="Rectangle-4-Copy-38">
                <use fill="#E60055" fill-rule="evenodd" xlink:href="#path-7"></use>
                <rect stroke="#FFFFFF" stroke-width="3" x="137.332618" y="73.245098" width="9.75840424" height="9.83237647" rx="4.19999993"></rect>
            </g>
            <g id="Combined-Shape-Copy-20">
                <use fill="#E60055" fill-rule="evenodd" xlink:href="#path-8"></use>
                <path stroke="#FFFFFF" stroke-width="3" d="M20.729964,88.9731295 C20.7719651,88.9703684 20.8141068,88.9689825 20.8563264,88.9689825 L251.360264,88.9689825 C251.402484,88.9689825 251.444625,88.9703684 251.486626,88.9731295 C251.577281,88.9703664 251.668098,88.9689825 251.759055,88.9689825 C256.578247,88.9689825 260.491205,92.8418179 260.491205,97.6269761 C260.491205,102.412134 256.578247,106.28497 251.759055,106.28497 C251.668098,106.28497 251.577281,106.283586 251.486626,106.280823 C251.444625,106.283584 251.402484,106.28497 251.360264,106.28497 L20.8563264,106.28497 C20.8141068,106.28497 20.7719651,106.283584 20.729964,106.280823 C20.6393095,106.283586 20.5484924,106.28497 20.4575351,106.28497 C15.6383432,106.28497 11.725386,102.412134 11.725386,97.6269761 C11.725386,92.8418179 15.6383432,88.9689825 20.4575351,88.9689825 C20.5484924,88.9689825 20.6393095,88.9703664 20.729964,88.9731295 Z"></path>
            </g>
            <g id="Oval-Copy-97">
                <use fill="#00AAE1" fill-rule="evenodd" xlink:href="#path-9"></use>
                <ellipse stroke="#FFFFFF" stroke-width="3" cx="20.4787437" cy="97.7739143" rx="3.19669188" ry="3.17929468"></ellipse>
            </g>
            <g id="Oval-Copy-101">
                <use fill="#00AAE1" fill-rule="evenodd" xlink:href="#path-10"></use>
                <ellipse stroke="#FFFFFF" stroke-width="3" cx="251.356091" cy="97.7739143" rx="3.19669188" ry="3.17929468"></ellipse>
            </g>
            <polygon id="Rectangle-Copy-207" fill-opacity="0.399999976" fill="#FFFFFF" style="mix-blend-mode: overlay;" points="96.1512015 90.3850178 164.27338 90.386965 164.27338 104.727176 98.9921374 104.725228"></polygon>
            <g id="Rectangle-Copy-183">
                <use fill="#8A8784" fill-rule="evenodd" xlink:href="#path-11"></use>
                <rect stroke="#FFFFFF" stroke-width="3" x="165.5" y="17.5" width="57" height="113" rx="4.19999993"></rect>
            </g>
            <polygon id="Rectangle-Copy-184" fill-opacity="0.25" fill="#FFFFFF" style="mix-blend-mode: overlay;" points="177.821883 19.0850958 220.818626 19.0850958 220.818626 128.383815 199.320254 128.383815"></polygon>
            <g id="Rectangle-Copy-190">
                <use fill="#E60055" fill-rule="evenodd" xlink:href="#path-12"></use>
                <rect stroke="#FFFFFF" stroke-width="3" x="202.50682" y="27.8265065" width="9.80935735" height="93.0863211" rx="4.19999993"></rect>
            </g>
            <ellipse id="Oval-Copy-102" fill="#FFFFFF" cx="176.88253" cy="28.4438781" rx="2.13489289" ry="2.11737155"></ellipse>
            <ellipse id="Oval-Copy-104" fill="#FFFFFF" cx="185.336706" cy="28.4438781" rx="2.13489289" ry="2.11737155"></ellipse>
        </g>
    </g>
</svg>